<?xml version="1.0" standalone="no"?>
<!DOCTYPE svg PUBLIC "-//W3C//DTD SVG 20010904//EN"
 "http://www.w3.org/TR/2001/REC-SVG-20010904/DTD/svg10.dtd">
<svg version="1.0" xmlns="http://www.w3.org/2000/svg"
 width="2097.000000pt" height="2135.000000pt" viewBox="0 0 2097.000000 2135.000000"
 preserveAspectRatio="xMidYMid meet">

<g transform="translate(0.000000,2135.000000) scale(0.100000,-0.100000)"
fill="#000000" stroke="none">
<path d="M10175 20854 c-505 -22 -889 -61 -1340 -134 -2524 -411 -4819 -1752
-6435 -3760 -365 -454 -713 -972 -999 -1487 -695 -1255 -1124 -2654 -1255
-4093 -55 -601 -55 -1300 0 -1900 192 -2110 1018 -4100 2375 -5725 391 -470
864 -942 1334 -1334 1624 -1357 3615 -2183 5725 -2375 600 -55 1296 -55 1900
0 2040 183 3983 969 5583 2256 498 401 975 864 1398 1358 1315 1535 2159 3439
2413 5440 61 476 80 801 80 1330 0 756 -57 1343 -199 2055 -361 1803 -1166
3426 -2400 4840 -191 219 -711 739 -930 930 -1094 954 -2291 1640 -3635 2083
-845 278 -1687 440 -2620 502 -159 11 -851 20 -995 14z m770 -334 c661 -30
1252 -109 1869 -251 3082 -711 5678 -2861 6959 -5764 435 -985 712 -2055 811
-3125 32 -349 40 -528 40 -950 0 -738 -55 -1308 -195 -2002 -523 -2605 -2074
-4915 -4296 -6399 -585 -390 -1190 -709 -1847 -974 -1798 -726 -3820 -910
-5746 -525 -1734 347 -3319 1132 -4675 2315 -219 191 -729 701 -920 920 -1350
1547 -2183 3399 -2434 5410 -55 438 -74 767 -74 1255 0 724 56 1306 193 1990
260 1298 762 2508 1499 3613 1442 2160 3660 3684 6186 4251 854 192 1773 274
2630 236z"/>
<path d="M10330 20253 c-1925 -37 -3809 -647 -5385 -1743 -499 -347 -904 -688
-1355 -1139 -539 -540 -978 -1089 -1369 -1712 -1126 -1797 -1636 -3890 -1466
-6009 240 -2969 1815 -5660 4295 -7336 715 -483 1500 -874 2310 -1150 824
-280 1632 -441 2545 -506 239 -17 1014 -17 1250 0 1100 79 2051 295 3030 687
1661 664 3122 1788 4204 3235 1070 1429 1728 3122 1900 4890 167 1704 -97
3371 -781 4933 -95 218 -334 691 -455 902 -349 606 -730 1137 -1201 1670 -166
188 -649 667 -844 837 -1622 1415 -3575 2242 -5702 2413 -164 13 -813 38 -841
33 -5 -1 -66 -3 -135 -5z m-5454 -7163 c148 -38 321 -143 472 -288 42 -40 70
-71 62 -68 -8 3 -44 17 -80 33 -58 25 -77 28 -175 28 -105 0 -114 -2 -179 -34
-249 -122 -419 -523 -491 -1151 -100 -877 38 -2110 360 -3210 337 -1154 840
-2009 1283 -2181 75 -29 228 -38 290 -16 23 8 44 12 47 8 7 -12 -118 -153
-180 -204 -116 -93 -235 -137 -374 -137 -162 0 -330 69 -517 211 -48 37 -84
50 -84 30 0 -18 -123 -141 -176 -177 -257 -170 -565 -43 -908 374 -37 45 -74
82 -82 82 -8 0 -38 -24 -67 -53 -62 -63 -146 -114 -203 -123 -161 -24 -386
155 -602 478 -519 774 -922 2344 -922 3588 0 492 69 930 182 1154 90 178 283
280 494 262 51 -4 75 -2 82 7 6 6 24 60 41 119 70 242 161 417 276 534 133
133 287 182 445 139 133 -36 122 -41 178 72 141 280 319 459 522 524 77 25
206 24 306 -1z m11698 -8 c33 -12 84 -36 115 -54 126 -75 291 -279 381 -471
29 -62 46 -87 59 -87 10 0 53 9 96 20 43 11 101 20 129 20 262 -2 479 -241
602 -664 20 -67 39 -127 43 -135 5 -10 37 -14 131 -16 98 -2 138 -7 184 -24
200 -72 294 -213 370 -552 57 -259 76 -468 76 -856 0 -303 -14 -542 -51 -833
-144 -1165 -511 -2267 -950 -2856 -100 -134 -250 -274 -344 -320 -65 -32 -87
-38 -143 -38 -81 -1 -134 26 -228 116 -33 32 -68 58 -76 58 -9 0 -35 -26 -59
-57 -77 -104 -278 -297 -371 -357 -132 -86 -202 -110 -323 -110 -92 -1 -105 2
-165 30 -79 38 -162 105 -214 173 -21 28 -44 51 -52 51 -8 0 -50 -27 -95 -60
-94 -70 -258 -153 -344 -175 -95 -24 -222 -20 -312 10 -86 29 -186 91 -254
157 -51 49 -129 145 -129 158 0 4 21 2 47 -6 61 -19 176 -18 244 2 402 117
862 806 1204 1804 259 756 424 1565 497 2430 17 207 17 891 0 1065 -71 702
-245 1132 -510 1262 -52 26 -66 28 -172 28 -104 0 -121 -3 -180 -28 -36 -16
-72 -31 -80 -34 -27 -9 140 140 224 201 93 68 236 139 322 161 86 21 252 15
328 -13z m-11263 -581 c330 -124 709 -747 1012 -1661 74 -223 151 -496 144
-513 -6 -15 -107 -41 -118 -30 -5 5 -35 104 -69 222 -246 866 -562 1533 -851
1794 -82 75 -155 110 -236 115 -117 8 -199 -58 -278 -223 -104 -215 -163 -508
-185 -915 -19 -331 -29 -323 -25 20 4 391 27 577 97 800 107 337 286 475 509
391z m10728 -2 c34 -14 72 -43 111 -86 151 -161 236 -473 260 -960 8 -161 4
-491 -6 -481 -1 2 -7 102 -13 223 -29 583 -124 974 -278 1145 -58 65 -109 90
-183 89 -205 -1 -438 -268 -686 -784 -141 -295 -318 -784 -424 -1175 -24 -85
-48 -161 -54 -167 -9 -10 -22 -10 -64 1 -29 7 -55 16 -58 19 -14 14 156 564
257 830 201 531 441 959 662 1180 179 179 327 230 476 166z m-6825 -219 c154
-55 287 -103 294 -105 9 -3 -11 -40 -60 -112 l-73 -108 -145 0 -144 0 -61 155
c-93 238 -105 270 -99 270 4 0 133 -45 288 -100z m3366 95 c0 -4 -151 -377
-155 -383 -3 -3 -269 -62 -270 -59 -1 1 -44 53 -95 115 -52 64 -89 117 -84
122 8 7 579 208 597 209 4 1 7 -1 7 -4z m-6782 -1769 c49 -25 174 -176 146
-176 -3 0 -28 20 -55 44 -54 49 -107 71 -144 62 -57 -14 -84 -108 -92 -311
-16 -416 122 -1091 297 -1450 87 -180 153 -241 220 -205 26 14 65 83 93 164
13 36 27 69 32 73 13 13 -2 -148 -20 -205 -30 -97 -105 -159 -179 -148 -227
37 -475 517 -577 1116 -27 160 -37 486 -20 625 39 306 166 480 299 411z m9631
-1 c77 -39 135 -149 172 -327 31 -144 32 -451 1 -648 -55 -360 -157 -679 -288
-899 -91 -154 -231 -281 -312 -281 -99 0 -170 107 -188 283 -8 82 7 89 32 15
39 -120 88 -188 136 -188 146 0 350 540 448 1186 32 206 39 536 15 652 -20 93
-52 142 -95 142 -30 0 -95 -35 -140 -77 -48 -42 -50 -36 -10 26 71 112 156
155 229 116z m-6645 -112 c21 -105 41 -388 28 -397 -5 -3 -108 -15 -228 -26
-227 -20 -599 -65 -835 -99 -194 -29 -558 -103 -1327 -271 -178 -38 -332 -70
-344 -70 -11 0 -32 14 -46 30 -42 48 -56 40 -48 -26 10 -85 54 -206 100 -276
38 -58 44 -63 81 -66 23 -2 116 15 210 37 751 176 1630 331 2410 424 18 2 20
-3 17 -38 -2 -22 -6 -42 -8 -44 -2 -2 -127 -19 -279 -37 -609 -74 -1134 -168
-1956 -350 -235 -52 -433 -94 -442 -94 -25 0 -87 79 -123 156 -110 236 -137
594 -50 672 12 11 62 28 116 40 52 12 226 51 385 88 700 159 1236 248 2065
344 135 15 250 29 257 29 6 1 14 -11 17 -26z m4116 -38 c686 -90 1079 -160
1770 -313 173 -39 355 -78 403 -88 103 -20 119 -35 138 -122 16 -79 6 -287
-19 -382 -47 -177 -133 -342 -186 -356 -12 -3 -92 11 -177 30 -658 152 -1225
260 -1754 336 -159 22 -300 43 -312 46 -20 4 -23 11 -23 49 0 29 4 45 13 45
42 0 610 -94 1007 -166 192 -35 740 -151 1037 -219 83 -19 156 -35 162 -35 36
0 122 150 151 266 19 74 26 154 14 154 -3 0 -20 -16 -38 -35 -19 -19 -42 -35
-53 -35 -11 0 -190 38 -399 85 -802 181 -1284 268 -1848 334 -49 6 -91 13 -93
15 -11 11 -22 153 -23 283 0 129 1 141 18 137 9 -2 105 -15 212 -29z m-10614
-1310 c12 -77 29 -178 38 -225 17 -93 14 -102 -35 -114 -18 -4 -34 0 -52 14
-27 21 -47 26 -47 11 0 -35 45 -232 69 -303 42 -123 108 -247 139 -259 13 -5
29 -9 36 -8 26 3 36 -2 36 -20 0 -24 -7 -29 -58 -37 -38 -6 -44 -4 -72 27 -41
45 -113 194 -144 299 -50 168 -67 268 -73 441 -6 188 -1 214 54 278 27 33 41
41 62 39 25 -3 26 -6 47 -143z m16664 117 c21 -22 30 -43 37 -88 13 -94 6
-299 -16 -424 -34 -199 -122 -431 -193 -514 -33 -38 -35 -39 -82 -32 -50 8
-67 26 -45 52 8 10 21 13 36 9 17 -4 30 1 47 19 32 31 87 142 120 240 26 79
66 256 66 295 0 25 -18 27 -35 4 -14 -18 -81 -21 -99 -3 -10 10 49 419 66 453
14 27 65 22 98 -11z m-12236 -120 c3 -5 14 -80 25 -168 118 -924 84 -1710 -90
-2153 -67 -168 -179 -303 -280 -336 -80 -27 -178 -17 -259 26 -207 110 -434
430 -631 891 -122 285 -126 317 -10 76 227 -474 456 -783 655 -883 57 -29 79
-35 133 -35 81 0 118 17 178 81 111 119 184 362 227 754 19 179 16 837 -5
1082 -17 189 -63 582 -73 614 -6 20 11 34 56 47 45 13 68 14 74 4z m7754 -3
c26 -7 51 -15 55 -19 5 -4 -3 -97 -17 -206 -126 -985 -88 -1807 100 -2165 45
-86 96 -144 147 -170 32 -17 54 -20 111 -17 96 4 164 39 267 136 176 165 344
422 519 792 88 187 103 196 32 20 -210 -521 -468 -898 -690 -1007 -81 -40
-191 -44 -264 -11 -245 113 -395 564 -416 1258 -13 394 9 821 63 1240 24 181
16 167 93 149z m-2861 -224 c-6 -161 -19 -244 -58 -365 -26 -79 -69 -180 -78
-180 -4 0 -20 105 -37 233 l-29 232 -35 -1 c-19 0 -93 -6 -165 -14 -71 -8
-227 -14 -345 -14 -247 0 -321 12 -438 69 -65 33 -193 124 -200 144 -1 4 23 4
55 0 32 -5 133 -13 226 -19 323 -21 690 20 1015 113 l77 22 9 -30 c4 -16 6
-102 3 -190z m-5697 -4070 l0 -265 -22 0 c-12 0 -30 -7 -40 -17 -17 -15 -18
-44 -18 -505 0 -318 4 -496 10 -509 7 -12 21 -19 40 -19 l30 0 0 -265 0 -265
-103 0 c-132 0 -185 17 -248 80 -51 51 -81 119 -99 222 -7 43 -10 298 -8 793
l3 730 23 64 c59 164 143 219 335 220 l97 1 0 -265z m301 249 c40 -12 67 -29
105 -68 90 -90 114 -190 114 -478 l0 -188 -190 0 -190 0 0 92 c0 103 -12 128
-62 128 l-28 0 0 265 0 265 98 0 c61 0 119 -6 153 -16z m955 -546 l190 -563
-3 -492 -4 -493 -189 0 -190 0 0 475 0 475 -211 562 c-116 310 -214 571 -216
581 -5 16 10 17 214 17 l219 0 190 -562z m624 557 c0 -10 -392 -1040 -399
-1047 -3 -4 -51 126 -106 288 l-100 294 80 235 80 235 222 0 c123 0 223 -2
223 -5z m2480 -1050 l0 -1055 -195 0 -195 0 0 1055 0 1055 195 0 195 0 0
-1055z m416 1023 c84 -44 132 -114 160 -235 12 -54 15 -124 12 -387 -3 -299
-4 -324 -23 -362 l-21 -40 21 -45 c19 -41 20 -67 23 -360 2 -258 0 -329 -12
-383 -31 -130 -91 -212 -183 -246 -45 -17 -78 -20 -203 -20 l-150 0 0 265 0
265 73 0 c43 0 78 5 85 12 16 16 16 185 -1 218 -11 23 -19 25 -85 28 l-72 3 0
269 0 270 69 0 c92 0 101 12 101 132 0 110 -6 118 -101 118 l-69 0 0 266 0
266 163 -4 c152 -4 165 -5 213 -30z m684 -739 c0 -512 3 -777 10 -790 7 -12
21 -19 40 -19 l30 0 0 -265 0 -265 -103 0 c-121 0 -176 15 -235 66 -23 19 -52
58 -66 87 -55 112 -56 117 -56 1075 l0 882 190 0 190 0 0 -771z m590 -104 c0
-760 -2 -886 -16 -952 -27 -130 -76 -208 -157 -250 -46 -24 -66 -28 -169 -31
l-118 -4 0 266 0 266 30 0 c19 0 33 7 40 19 7 13 10 278 10 790 l0 771 190 0
190 0 0 -875z m510 -180 l0 -1055 -195 0 -195 0 0 1055 0 1055 195 0 195 0 0
-1055z m1000 0 l0 -1055 -190 0 -190 0 0 1055 0 1055 190 0 190 0 0 -1055z
m1670 790 l0 -265 -33 0 c-52 0 -57 -12 -57 -130 0 -69 4 -110 12 -118 8 -8
53 -12 138 -12 155 0 229 -14 289 -54 83 -56 123 -140 143 -296 15 -122 5
-638 -14 -711 -30 -115 -82 -190 -162 -232 -33 -17 -63 -22 -158 -25 l-118 -4
0 266 0 266 23 0 c13 0 28 5 35 12 15 15 16 206 2 228 -7 12 -43 16 -182 20
-199 6 -225 15 -296 95 -86 97 -106 230 -99 633 5 296 11 342 62 441 30 61 95
117 155 136 26 8 91 14 153 14 l107 1 0 -265z m279 248 c99 -32 164 -113 197
-245 9 -40 17 -135 21 -260 l6 -198 -197 0 -196 0 0 83 c0 89 -8 107 -47 107
l-23 0 0 265 0 265 94 0 c60 0 112 -6 145 -17z m-7091 -105 c22 -62 82 -234
133 -382 89 -257 92 -269 74 -282 -10 -8 -27 -14 -37 -14 -10 0 -31 -9 -46
-20 -43 -32 -221 -125 -226 -119 -1 2 -58 164 -126 359 -67 195 -140 403 -161
463 l-38 107 193 0 194 0 40 -112z m942 -943 l0 -1055 -185 0 -185 0 -2 403
-3 402 -25 -67 c-14 -38 -27 -62 -31 -55 -4 7 -55 149 -113 317 -119 340 -120
347 -56 380 22 11 46 20 54 20 8 0 27 11 43 24 41 34 128 76 158 76 14 0 38
-6 53 -13 15 -8 50 -14 79 -15 49 -2 55 -5 105 -58 29 -31 58 -66 65 -77 17
-30 16 -12 -1 21 -8 15 -32 44 -55 65 -23 21 -41 46 -41 57 0 15 -10 20 -57
25 -95 10 -123 15 -123 24 0 5 19 21 43 35 23 14 36 25 29 26 -7 0 -28 -11
-45 -24 -18 -13 -43 -27 -57 -31 -14 -4 -36 -16 -49 -26 -13 -11 -29 -19 -34
-19 -6 0 -46 -18 -90 -41 -43 -22 -81 -39 -86 -37 -4 2 47 159 113 350 l121
348 188 0 187 0 0 -1055z m-1229 495 c70 -201 130 -372 134 -382 5 -11 0 -18
-17 -23 -13 -4 -32 -15 -43 -25 -11 -10 -31 -21 -45 -25 -14 -4 -32 -13 -40
-21 -9 -7 -41 -25 -73 -38 l-57 -26 1 468 c0 257 3 460 6 452 4 -8 64 -179
134 -380z m6493 283 c-37 -60 -90 -145 -118 -190 l-50 -83 -64 0 c-35 0 -62 4
-60 9 2 4 39 90 83 189 l80 182 98 0 97 0 -66 -107z m-5957 -545 c6 -18 63
-181 127 -362 l116 -329 -97 -280 c-53 -154 -99 -274 -102 -266 -2 8 -89 256
-193 552 -103 296 -188 540 -188 542 0 9 76 55 91 55 9 0 47 20 85 45 37 25
75 45 84 45 9 0 25 7 36 15 27 20 29 19 41 -17z m-2150 -480 c-4 -549 -4 -552
-64 -661 -32 -57 -99 -109 -161 -127 -20 -5 -83 -10 -139 -10 l-103 0 0 265 0
265 35 0 c49 0 56 20 53 147 l-3 108 -67 3 -68 3 0 254 0 255 261 0 260 0 -4
-502z m1809 186 l43 -119 0 -437 1 -438 -190 0 -189 0 -3 338 c-2 185 -2 406
0 490 l3 153 67 33 c37 18 83 42 102 54 19 12 45 22 56 22 12 0 27 7 34 15 7
9 18 14 23 12 6 -2 29 -57 53 -123z m6814 -347 c0 -93 7 -107 57 -107 l33 0 0
-265 0 -265 -110 0 c-131 0 -197 20 -252 77 -84 88 -107 177 -115 441 l-6 202
197 0 196 0 0 -83z m-2060 -377 l0 -260 -240 0 -240 0 0 260 0 260 240 0 240
0 0 -260z m1000 0 l0 -260 -235 0 -235 0 0 260 0 260 235 0 235 0 0 -260z"/>
<path d="M4597 13006 c-177 -51 -288 -153 -395 -363 -119 -235 -195 -492 -246
-843 -13 -85 -66 -581 -66 -612 0 -19 18 -5 37 30 27 47 80 98 116 111 70 27
166 5 233 -52 31 -26 54 -34 54 -19 1 49 34 383 46 467 71 496 212 858 405
1041 87 83 154 116 247 122 39 2 72 8 72 12 0 14 -90 69 -149 91 -71 28 -278
36 -354 15z"/>
<path d="M3663 12326 c-23 -7 -57 -23 -76 -35 -171 -105 -299 -467 -382 -1076
-29 -215 -27 -195 -16 -195 5 0 14 14 22 31 28 70 92 119 172 134 53 10 117
-16 165 -69 l39 -43 6 -374 c8 -588 51 -967 183 -1634 120 -605 214 -988 321
-1300 95 -280 95 -282 49 -333 -41 -45 -104 -75 -192 -91 -75 -14 -132 1 -204
54 -36 27 -50 32 -50 21 0 -24 184 -367 318 -591 215 -361 425 -614 607 -733
214 -140 421 -133 573 20 28 28 52 56 52 61 0 5 -25 36 -55 70 -501 564 -718
909 -913 1453 -181 504 -411 1559 -491 2249 -100 860 -47 1626 153 2214 25 73
33 108 26 117 -41 48 -221 78 -307 50z"/>
<path d="M2825 11556 c-125 -39 -215 -144 -275 -323 -33 -100 -73 -314 -68
-366 l3 -32 39 58 c105 157 232 191 330 88 34 -36 33 -19 17 -326 -24 -445 16
-1055 100 -1549 93 -549 251 -1143 424 -1590 64 -166 66 -192 20 -252 -68 -89
-189 -92 -299 -8 -26 20 -50 33 -53 30 -15 -15 131 -304 232 -456 124 -188
287 -376 397 -458 125 -93 217 -81 368 48 51 45 68 65 63 78 -3 9 -31 51 -62
92 -166 222 -368 600 -499 930 -240 605 -433 1414 -506 2120 -59 569 -44 1232
39 1713 34 198 35 192 -19 206 -59 15 -201 13 -251 -3z"/>
<path d="M4937 7698 c-21 -82 -113 -165 -207 -188 -62 -15 -135 4 -209 55 -34
23 -51 31 -51 21 0 -23 92 -223 165 -356 184 -338 419 -664 640 -885 188 -189
344 -294 525 -356 96 -33 216 -32 290 3 57 26 139 92 129 102 -3 3 -30 10 -59
16 -154 29 -364 179 -531 378 -237 283 -451 654 -619 1072 -34 85 -63 156 -65
158 -1 2 -5 -7 -8 -20z"/>
<path d="M16210 13006 c-78 -22 -190 -85 -190 -106 0 -4 30 -9 68 -12 242 -13
462 -319 582 -812 53 -212 110 -622 110 -781 0 -23 3 -45 7 -48 3 -4 26 9 49
28 58 48 103 65 167 65 72 0 136 -40 174 -110 50 -90 51 -85 23 205 -43 449
-103 754 -198 1007 -129 341 -272 507 -489 563 -69 18 -239 18 -303 1z"/>
<path d="M17245 12327 c-63 -21 -105 -46 -105 -63 0 -8 16 -63 36 -122 77
-232 135 -510 171 -824 25 -220 25 -908 0 -1158 -51 -503 -117 -887 -263
-1547 -201 -906 -410 -1419 -785 -1920 -59 -78 -291 -352 -382 -451 l-58 -63
20 -27 c46 -65 122 -118 203 -143 277 -87 589 143 934 688 155 244 394 679
394 716 0 13 -10 9 -46 -18 -66 -51 -139 -70 -211 -55 -85 17 -149 48 -183 86
-44 51 -46 72 -12 161 143 375 304 1034 441 1804 89 503 142 1126 126 1495 -7
177 -4 193 52 246 32 31 91 58 125 58 73 0 171 -65 198 -130 14 -34 30 -39 30
-10 0 35 -60 426 -80 528 -42 202 -105 404 -165 522 -52 102 -103 161 -176
200 -55 29 -75 34 -144 37 -48 2 -96 -3 -120 -10z"/>
<path d="M18031 11557 c-19 -8 -37 -19 -39 -26 -2 -6 8 -76 22 -154 136 -752
103 -1684 -90 -2587 -200 -934 -483 -1656 -848 -2165 -47 -66 -86 -125 -86
-131 0 -19 124 -130 171 -152 59 -28 116 -36 167 -23 112 31 341 275 519 554
73 116 203 371 203 400 0 18 -1 18 -22 3 -58 -41 -112 -69 -151 -78 -86 -19
-183 36 -208 120 -10 35 -7 47 39 167 245 633 435 1447 506 2165 36 360 46
790 25 1112 -12 191 -10 201 46 243 53 41 121 45 178 12 41 -24 97 -79 144
-143 l22 -29 0 46 c1 53 -22 195 -46 284 -25 97 -97 237 -148 289 -71 74 -138
100 -265 103 -68 2 -117 -2 -139 -10z"/>
<path d="M16157 7693 c-3 -5 -26 -62 -52 -128 -183 -462 -432 -879 -690 -1152
-146 -156 -328 -276 -460 -303 -67 -14 -70 -29 -12 -68 97 -67 125 -77 222
-75 107 1 212 35 344 111 331 192 746 701 1024 1258 75 149 107 223 107 246 0
19 -2 18 -29 -5 -78 -66 -177 -87 -265 -57 -51 17 -128 88 -151 140 -17 39
-29 48 -38 33z"/>
<path d="M7180 3555 c0 -14 53 -105 61 -105 15 0 10 19 -16 59 -23 37 -45 60
-45 46z"/>
<path d="M7270 3503 c0 -18 5 -24 17 -21 26 5 28 34 3 41 -16 4 -20 0 -20 -20z"/>
<path d="M7285 3420 c3 -5 8 -10 11 -10 2 0 4 5 4 10 0 6 -5 10 -11 10 -5 0
-7 -4 -4 -10z"/>
<path d="M12200 4323 c0 -25 15 -38 25 -22 4 6 0 18 -9 27 -15 15 -16 15 -16
-5z"/>
<path d="M12322 4124 c12 -65 59 -268 62 -272 2 -1 1 35 -1 80 -3 56 -13 106
-31 153 -32 88 -43 101 -30 39z"/>
<path d="M12100 4120 c0 -19 3 -21 12 -12 9 9 9 15 0 24 -9 9 -12 7 -12 -12z"/>
<path d="M12100 3965 c0 -19 4 -35 10 -35 12 0 24 45 15 59 -13 22 -25 10 -25
-24z"/>
<path d="M12222 3975 c0 -16 2 -22 5 -12 2 9 2 23 0 30 -3 6 -5 -1 -5 -18z"/>
<path d="M12410 3506 c0 -8 5 -18 10 -21 6 -3 10 3 10 14 0 12 -4 21 -10 21
-5 0 -10 -6 -10 -14z"/>
<path d="M12430 3252 l5 -47 3 39 c2 21 0 42 -5 47 -4 4 -6 -13 -3 -39z"/>
<path d="M13210 4316 c0 -14 5 -26 10 -26 6 0 10 9 10 19 0 11 -4 23 -10 26
-6 4 -10 -5 -10 -19z"/>
<path d="M13320 4169 c0 -7 32 -162 55 -269 l12 -55 0 90 c0 50 -4 95 -8 101
-5 6 -20 40 -33 75 -14 35 -25 61 -26 58z"/>
<path d="M13106 4131 c-4 -7 -5 -15 -2 -18 9 -9 19 4 14 18 -4 11 -6 11 -12 0z"/>
<path d="M13105 3990 c-10 -16 4 -62 15 -55 13 8 13 52 1 60 -5 3 -13 0 -16
-5z"/>
<path d="M13225 3990 c-3 -5 -1 -18 4 -27 9 -16 10 -14 11 10 0 28 -5 34 -15
17z"/>
<path d="M13420 3508 c0 -16 5 -28 10 -28 13 0 13 20 0 40 -8 12 -10 9 -10
-12z"/>
<path d="M13430 3260 c0 -22 3 -40 8 -40 4 0 6 18 4 40 -2 22 -6 40 -8 40 -2
0 -4 -18 -4 -40z"/>
<path d="M9117 4633 c-37 -19 -66 -38 -63 -40 5 -5 95 38 129 62 38 26 4 15
-66 -22z"/>
<path d="M8994 4305 c-10 -8 -14 -15 -8 -15 5 0 19 7 30 15 10 8 14 15 8 15
-5 0 -19 -7 -30 -15z"/>
</g>
</svg>
